<svg width="66" height="59" viewBox="0 0 66 59" fill="none" xmlns="http://www.w3.org/2000/svg">
<path d="M37.5 4.125C37.5 3.03098 37.0654 1.98177 36.2919 1.20818C35.5183 0.434597 34.4691 0 33.375 0C32.281 0 31.2318 0.434597 30.4582 1.20818C29.6846 1.98177 29.25 3.03098 29.25 4.125C29.25 5.21902 29.6846 6.26823 30.4582 7.04182C31.2318 7.8154 32.281 8.25 33.375 8.25C34.4691 8.25 35.5183 7.8154 36.2919 7.04182C37.0654 6.26823 37.5 5.21902 37.5 4.125ZM30.8549 10.9119C29.3274 10.3705 27.9868 9.3457 27.0651 7.95996L25.8082 6.07148C25.1766 5.12402 23.9004 4.87266 22.9465 5.5043C21.9926 6.13594 21.7412 7.41855 22.3729 8.36602L23.6362 10.248C24.8028 11.9947 26.3948 13.3676 28.2188 14.2699V30.9375C28.2188 32.0783 29.1405 33 30.2813 33C31.4221 33 32.3438 32.0783 32.3438 30.9375V24.75H34.4063V30.9375C34.4063 32.0783 35.328 33 36.4688 33C37.6096 33 38.5313 32.0783 38.5313 30.9375V14.2828C40.4069 13.3676 42.0375 11.9496 43.217 10.1449L44.3901 8.34668C45.0088 7.39277 44.7381 6.1166 43.7842 5.49141C42.8303 4.86621 41.5541 5.13691 40.9289 6.09727L39.7559 7.88906C38.3508 10.0418 35.9596 11.3438 33.3879 11.3438C32.5758 11.3438 31.783 11.2148 31.0289 10.9699C30.9709 10.9506 30.9129 10.9248 30.8549 10.9119Z" fill="#DA7878"/>
<path d="M4.89234 53.5133C5.23233 53.5133 5.53774 53.447 5.80857 53.3145C6.08517 53.1762 6.30703 52.986 6.47414 52.744C6.64701 52.502 6.7421 52.2225 6.75938 51.9056H8.72151C8.70998 52.5106 8.53134 53.0609 8.1856 53.5565C7.83985 54.0521 7.38173 54.4468 6.81124 54.7407C6.24076 55.0288 5.60977 55.1729 4.91827 55.1729C4.20373 55.1729 3.58138 55.0519 3.05123 54.8098C2.52108 54.5621 2.08025 54.2221 1.72874 53.7899C1.37723 53.3577 1.11216 52.8592 0.933521 52.2945C0.760647 51.7298 0.67421 51.1247 0.67421 50.4793V50.1768C0.67421 49.5314 0.760647 48.9264 0.933521 48.3616C1.11216 47.7911 1.37723 47.2898 1.72874 46.8576C2.08025 46.4254 2.52108 46.0883 3.05123 45.8463C3.58138 45.5985 4.20084 45.4746 4.90963 45.4746C5.65875 45.4746 6.31567 45.6245 6.88039 45.9241C7.44512 46.218 7.88883 46.63 8.21153 47.1602C8.53999 47.6845 8.70998 48.2954 8.72151 48.9926H6.75938C6.7421 48.6469 6.65566 48.3357 6.50007 48.0591C6.35025 47.7767 6.13704 47.552 5.86044 47.3849C5.5896 47.2178 5.26402 47.1342 4.8837 47.1342C4.46304 47.1342 4.11441 47.2207 3.83781 47.3935C3.56121 47.5606 3.34512 47.7911 3.18953 48.085C3.03394 48.3732 2.92157 48.6987 2.85242 49.0618C2.78904 49.419 2.75734 49.7907 2.75734 50.1768V50.4793C2.75734 50.8654 2.78904 51.24 2.85242 51.603C2.91581 51.9661 3.0253 52.2916 3.18089 52.5798C3.34224 52.8621 3.56121 53.0897 3.83781 53.2626C4.11441 53.4297 4.46592 53.5133 4.89234 53.5133ZM12.4124 47.4281V55H10.3292V45.6475H12.3173L12.4124 47.4281ZM15.2734 45.587L15.2562 47.5232C15.1294 47.5001 14.9911 47.4829 14.8413 47.4713C14.6972 47.4598 14.5531 47.454 14.4091 47.454C14.0518 47.454 13.7377 47.5059 13.4669 47.6096C13.1961 47.7076 12.9684 47.8517 12.784 48.0418C12.6054 48.2262 12.4671 48.4509 12.3692 48.716C12.2712 48.9811 12.2136 49.2779 12.1963 49.6063L11.7209 49.6409C11.7209 49.0531 11.7785 48.5086 11.8937 48.0072C12.009 47.5059 12.1819 47.0651 12.4124 46.6847C12.6486 46.3044 12.9425 46.0077 13.294 45.7944C13.6513 45.5812 14.0633 45.4746 14.5301 45.4746C14.6569 45.4746 14.7923 45.4862 14.9363 45.5092C15.0862 45.5323 15.1985 45.5582 15.2734 45.587ZM20.5288 55.1729C19.8373 55.1729 19.2121 55.0605 18.6531 54.8358C18.0999 54.6053 17.6274 54.2855 17.2356 53.8763C16.8495 53.4672 16.5527 52.986 16.3453 52.4328C16.1378 51.8796 16.0341 51.2832 16.0341 50.6436V50.2978C16.0341 49.566 16.1407 48.9033 16.3539 48.3098C16.5671 47.7162 16.8639 47.2091 17.2442 46.7885C17.6245 46.3621 18.074 46.0365 18.5926 45.8117C19.1112 45.587 19.6731 45.4746 20.2781 45.4746C20.9466 45.4746 21.5315 45.587 22.0328 45.8117C22.5342 46.0365 22.9491 46.3534 23.2775 46.7625C23.6117 47.1659 23.8595 47.6471 24.0209 48.206C24.188 48.765 24.2715 49.3816 24.2715 50.0558V50.9461H17.0454V49.4507H22.2143V49.2865C22.2028 48.9119 22.1279 48.5604 21.9896 48.232C21.8571 47.9035 21.6525 47.6384 21.3759 47.4368C21.0993 47.2351 20.7305 47.1342 20.2695 47.1342C19.9238 47.1342 19.6155 47.2091 19.3446 47.359C19.0796 47.503 18.8577 47.7134 18.6791 47.9899C18.5004 48.2665 18.3621 48.6008 18.2642 48.9926C18.172 49.3787 18.1259 49.8138 18.1259 50.2978V50.6436C18.1259 51.0527 18.1806 51.433 18.2901 51.7845C18.4053 52.1303 18.5725 52.4328 18.7914 52.6921C19.0104 52.9514 19.2755 53.156 19.5867 53.3058C19.8978 53.4499 20.2522 53.5219 20.6498 53.5219C21.1512 53.5219 21.5978 53.4211 21.9896 53.2194C22.3815 53.0177 22.7214 52.7325 23.0096 52.3637L24.1073 53.4268C23.9056 53.7207 23.6434 54.0031 23.3207 54.2739C22.998 54.539 22.6033 54.7551 22.1365 54.9222C21.6755 55.0893 21.1396 55.1729 20.5288 55.1729ZM31.1692 53.1243V48.6642C31.1692 48.3299 31.1087 48.0418 30.9877 47.7998C30.8667 47.5578 30.6823 47.3705 30.4345 47.2379C30.1925 47.1054 29.8871 47.0391 29.5183 47.0391C29.1783 47.0391 28.8844 47.0968 28.6366 47.212C28.3888 47.3273 28.1958 47.4829 28.0575 47.6788C27.9192 47.8747 27.85 48.0966 27.85 48.3443H25.7755C25.7755 47.9755 25.8649 47.6183 26.0435 47.2725C26.2221 46.9268 26.4815 46.6185 26.8214 46.3476C27.1614 46.0768 27.5677 45.8636 28.0402 45.708C28.5127 45.5524 29.0429 45.4746 29.6306 45.4746C30.3337 45.4746 30.956 45.5928 31.4977 45.829C32.0451 46.0653 32.4744 46.4226 32.7856 46.9008C33.1025 47.3734 33.261 47.9669 33.261 48.6814V52.8391C33.261 53.2655 33.2898 53.6487 33.3474 53.9887C33.4108 54.3229 33.5001 54.6139 33.6154 54.8617V55H31.4804C31.3824 54.7753 31.3046 54.49 31.247 54.1443C31.1952 53.7928 31.1692 53.4528 31.1692 53.1243ZM31.4718 49.3124L31.489 50.6004H29.9937C29.6076 50.6004 29.2676 50.6378 28.9737 50.7127C28.6798 50.7819 28.4349 50.8856 28.239 51.0239C28.0431 51.1622 27.8961 51.3293 27.7982 51.5252C27.7002 51.7212 27.6512 51.943 27.6512 52.1908C27.6512 52.4386 27.7089 52.6662 27.8241 52.8736C27.9394 53.0753 28.1065 53.2338 28.3254 53.3491C28.5502 53.4643 28.821 53.5219 29.138 53.5219C29.5644 53.5219 29.9361 53.4355 30.253 53.2626C30.5757 53.084 30.8292 52.8679 31.0136 52.6143C31.198 52.355 31.296 52.1101 31.3075 51.8796L31.9817 52.8045C31.9126 53.0408 31.7945 53.2943 31.6273 53.5651C31.4602 53.836 31.2413 54.0953 30.9704 54.3431C30.7053 54.5851 30.3855 54.7839 30.011 54.9395C29.6422 55.0951 29.2157 55.1729 28.7317 55.1729C28.1209 55.1729 27.5763 55.0519 27.098 54.8098C26.6198 54.5621 26.2452 54.2307 25.9744 53.8158C25.7035 53.3952 25.5681 52.9197 25.5681 52.3896C25.5681 51.894 25.6603 51.4561 25.8447 51.0758C26.0349 50.6897 26.3115 50.367 26.6745 50.1077C27.0433 49.8483 27.4928 49.6524 28.0229 49.5199C28.5531 49.3816 29.1581 49.3124 29.8381 49.3124H31.4718ZM39.7265 45.6475V47.1688H34.4538V45.6475H39.7265ZM35.9751 43.3569H38.0583V52.4155C38.0583 52.7037 38.0986 52.9255 38.1793 53.0811C38.2657 53.2309 38.3838 53.3318 38.5337 53.3836C38.6835 53.4355 38.8592 53.4614 39.0609 53.4614C39.205 53.4614 39.3433 53.4528 39.4758 53.4355C39.6084 53.4182 39.715 53.4009 39.7956 53.3836L39.8043 54.9741C39.6314 55.0259 39.4297 55.072 39.1992 55.1124C38.9745 55.1527 38.7152 55.1729 38.4213 55.1729C37.943 55.1729 37.5195 55.0893 37.1507 54.9222C36.7819 54.7493 36.4938 54.4699 36.2863 54.0838C36.0789 53.6977 35.9751 53.1848 35.9751 52.5452V43.3569ZM40.7292 50.4275V50.2287C40.7292 49.5545 40.8271 48.9292 41.0231 48.353C41.219 47.771 41.5013 47.2668 41.8701 46.8403C42.2447 46.4082 42.6999 46.0739 43.2358 45.8377C43.7775 45.5956 44.3883 45.4746 45.0683 45.4746C45.754 45.4746 46.3649 45.5956 46.9008 45.8377C47.4425 46.0739 47.9006 46.4082 48.2751 46.8403C48.6497 47.2668 48.9349 47.771 49.1309 48.353C49.3268 48.9292 49.4247 49.5545 49.4247 50.2287V50.4275C49.4247 51.1017 49.3268 51.7269 49.1309 52.3032C48.9349 52.8794 48.6497 53.3836 48.2751 53.8158C47.9006 54.2422 47.4453 54.5765 46.9094 54.8185C46.3735 55.0547 45.7656 55.1729 45.0856 55.1729C44.3999 55.1729 43.7862 55.0547 43.2445 54.8185C42.7086 54.5765 42.2533 54.2422 41.8788 53.8158C41.5042 53.3836 41.219 52.8794 41.0231 52.3032C40.8271 51.7269 40.7292 51.1017 40.7292 50.4275ZM42.8123 50.2287V50.4275C42.8123 50.8481 42.8555 51.2457 42.942 51.6203C43.0284 51.9949 43.1638 52.3233 43.3482 52.6057C43.5326 52.8881 43.7689 53.1099 44.057 53.2713C44.3451 53.4326 44.688 53.5133 45.0856 53.5133C45.4717 53.5133 45.8059 53.4326 46.0883 53.2713C46.3764 53.1099 46.6127 52.8881 46.7971 52.6057C46.9815 52.3233 47.1169 51.9949 47.2033 51.6203C47.2955 51.2457 47.3416 50.8481 47.3416 50.4275V50.2287C47.3416 49.8138 47.2955 49.4219 47.2033 49.0531C47.1169 48.6786 46.9786 48.3472 46.7884 48.0591C46.604 47.771 46.3678 47.5462 46.0796 47.3849C45.7973 47.2178 45.4602 47.1342 45.0683 47.1342C44.6765 47.1342 44.3365 47.2178 44.0484 47.3849C43.766 47.5462 43.5326 47.771 43.3482 48.0591C43.1638 48.3472 43.0284 48.6786 42.942 49.0531C42.8555 49.4219 42.8123 49.8138 42.8123 50.2287ZM53.2626 47.4281V55H51.1794V45.6475H53.1675L53.2626 47.4281ZM56.1236 45.587L56.1063 47.5232C55.9796 47.5001 55.8413 47.4829 55.6914 47.4713C55.5474 47.4598 55.4033 47.454 55.2592 47.454C54.902 47.454 54.5879 47.5059 54.3171 47.6096C54.0462 47.7076 53.8186 47.8517 53.6342 48.0418C53.4556 48.2262 53.3173 48.4509 53.2193 48.716C53.1214 48.9811 53.0637 49.2779 53.0465 49.6063L52.5711 49.6409C52.5711 49.0531 52.6287 48.5086 52.7439 48.0072C52.8592 47.5059 53.0321 47.0651 53.2626 46.6847C53.4988 46.3044 53.7927 46.0077 54.1442 45.7944C54.5015 45.5812 54.9135 45.4746 55.3803 45.4746C55.507 45.4746 55.6425 45.4862 55.7865 45.5092C55.9363 45.5323 56.0487 45.5582 56.1236 45.587ZM62.6756 52.4674C62.6756 52.2599 62.6237 52.0727 62.52 51.9056C62.4162 51.7327 62.2174 51.5771 61.9236 51.4388C61.6354 51.3005 61.209 51.1737 60.6443 51.0585C60.1487 50.949 59.6935 50.8193 59.2786 50.6695C58.8694 50.5139 58.5179 50.3266 58.224 50.1077C57.9302 49.8887 57.7025 49.6294 57.5412 49.3297C57.3798 49.0301 57.2992 48.6843 57.2992 48.2925C57.2992 47.9122 57.3827 47.552 57.5498 47.212C57.7169 46.872 57.9561 46.5724 58.2673 46.3131C58.5784 46.0538 58.9559 45.8492 59.3996 45.6994C59.8491 45.5495 60.3504 45.4746 60.9036 45.4746C61.6873 45.4746 62.3586 45.6072 62.9176 45.8722C63.4823 46.1316 63.9145 46.4859 64.2141 46.9354C64.5138 47.3791 64.6636 47.8805 64.6636 48.4394H62.5805C62.5805 48.1916 62.5171 47.9611 62.3903 47.7479C62.2693 47.529 62.0849 47.3532 61.8371 47.2207C61.5893 47.0824 61.2782 47.0132 60.9036 47.0132C60.5463 47.0132 60.2496 47.0708 60.0133 47.1861C59.7828 47.2956 59.6099 47.4396 59.4947 47.6183C59.3852 47.7969 59.3304 47.9928 59.3304 48.206C59.3304 48.3616 59.3593 48.5028 59.4169 48.6296C59.4803 48.7506 59.584 48.863 59.728 48.9667C59.8721 49.0647 60.068 49.1569 60.3158 49.2433C60.5694 49.3297 60.8863 49.4133 61.2666 49.494C61.9812 49.6438 62.5949 49.8368 63.1077 50.0731C63.6264 50.3036 64.024 50.6032 64.3006 50.972C64.5772 51.3351 64.7155 51.7961 64.7155 52.355C64.7155 52.7699 64.6262 53.1502 64.4475 53.496C64.2746 53.836 64.0211 54.1327 63.6869 54.3863C63.3526 54.6341 62.9522 54.8271 62.4854 54.9654C62.0244 55.1037 61.5058 55.1729 60.9295 55.1729C60.0824 55.1729 59.365 55.023 58.7772 54.7234C58.1895 54.418 57.7429 54.029 57.4375 53.5565C57.1378 53.0782 56.988 52.5826 56.988 52.0698H59.002C59.025 52.4559 59.1316 52.7642 59.3218 52.9947C59.5177 53.2194 59.7597 53.3836 60.0479 53.4874C60.3418 53.5853 60.6443 53.6343 60.9555 53.6343C61.33 53.6343 61.6441 53.5853 61.8976 53.4874C62.1512 53.3836 62.3442 53.2453 62.4768 53.0725C62.6093 52.8938 62.6756 52.6921 62.6756 52.4674Z" fill="#DA7878"/>
</svg>
