<svg width="23" height="33" viewBox="0 0 23 33" fill="none" xmlns="http://www.w3.org/2000/svg">
<path d="M15.5 4.125C15.5 3.03098 15.0654 1.98177 14.2919 1.20818C13.5183 0.434597 12.4691 0 11.375 0C10.281 0 9.23181 0.434597 8.45822 1.20818C7.68463 1.98177 7.25004 3.03098 7.25004 4.125C7.25004 5.21902 7.68463 6.26823 8.45822 7.04182C9.23181 7.8154 10.281 8.25 11.375 8.25C12.4691 8.25 13.5183 7.8154 14.2919 7.04182C15.0654 6.26823 15.5 5.21902 15.5 4.125ZM8.85492 10.9119C7.32738 10.3705 5.98675 9.3457 5.06507 7.95996L3.80824 6.07148C3.1766 5.12402 1.90043 4.87266 0.94652 5.5043C-0.00738588 6.13594 -0.258753 7.41855 0.372887 8.36602L1.63617 10.248C2.80277 11.9947 4.39476 13.3676 6.21879 14.2699V30.9375C6.21879 32.0783 7.14047 33 8.28129 33C9.42211 33 10.3438 32.0783 10.3438 30.9375V24.75H12.4063V30.9375C12.4063 32.0783 13.328 33 14.4688 33C15.6096 33 16.5313 32.0783 16.5313 30.9375V14.2828C18.4069 13.3676 20.0375 11.9496 21.217 10.1449L22.3901 8.34668C23.0088 7.39277 22.7381 6.1166 21.7842 5.49141C20.8303 4.86621 19.5541 5.13691 18.9289 6.09727L17.7559 7.88906C16.3508 10.0418 13.9596 11.3438 11.3879 11.3438C10.5758 11.3438 9.78304 11.2148 9.02894 10.9699C8.97093 10.9506 8.91293 10.9248 8.85492 10.9119Z" fill="#DA7878"/>
</svg>
