<svg width="38" height="33" viewBox="0 0 38 33" fill="none" xmlns="http://www.w3.org/2000/svg">
<path d="M37.1121 16.4678C37.1121 17.6279 36.1453 18.5367 35.0496 18.5367H32.9871L33.0322 28.8621C33.0322 29.0361 33.0193 29.2102 33 29.3842V30.4219C33 31.8463 31.8463 33 30.4219 33H29.3906C29.3197 33 29.2488 33 29.1779 32.9936C29.0877 33 28.9975 33 28.9072 33H26.8125H25.2656C23.8412 33 22.6875 31.8463 22.6875 30.4219V28.875V24.75C22.6875 23.6092 21.7658 22.6875 20.625 22.6875H16.5C15.3592 22.6875 14.4375 23.6092 14.4375 24.75V28.875V30.4219C14.4375 31.8463 13.2838 33 11.8594 33H10.3125H8.25645C8.15977 33 8.06309 32.9936 7.96641 32.9871C7.88906 32.9936 7.81172 33 7.73438 33H6.70312C5.27871 33 4.125 31.8463 4.125 30.4219V23.2031C4.125 23.1451 4.125 23.0807 4.13145 23.0227V18.5367H2.0625C0.902344 18.5367 0 17.6344 0 16.4678C0 15.8877 0.193359 15.3721 0.644531 14.9209L17.1703 0.515625C17.6215 0.0644531 18.1371 0 18.5883 0C19.0395 0 19.5551 0.128906 19.9418 0.451172L36.4031 14.9209C36.9188 15.3721 37.1766 15.8877 37.1121 16.4678Z" fill="#B80000" fill-opacity="0.59"/>
</svg>
