<svg width="45" height="39" viewBox="0 0 45 39" fill="none" xmlns="http://www.w3.org/2000/svg">
<path d="M0.940491 3.78574C0.940491 2.04735 2.34495 0.642883 4.08335 0.642883H41.7976C43.536 0.642883 44.9405 2.04735 44.9405 3.78574C44.9405 5.52413 43.536 6.9286 41.7976 6.9286H4.08335C2.34495 6.9286 0.940491 5.52413 0.940491 3.78574ZM0.940491 19.5C0.940491 17.7616 2.34495 16.3572 4.08335 16.3572H41.7976C43.536 16.3572 44.9405 17.7616 44.9405 19.5C44.9405 21.2384 43.536 22.6429 41.7976 22.6429H4.08335C2.34495 22.6429 0.940491 21.2384 0.940491 19.5ZM44.9405 35.2143C44.9405 36.9527 43.536 38.3572 41.7976 38.3572H4.08335C2.34495 38.3572 0.940491 36.9527 0.940491 35.2143C0.940491 33.4759 2.34495 32.0715 4.08335 32.0715H41.7976C43.536 32.0715 44.9405 33.4759 44.9405 35.2143Z" fill="#B80000"/>
</svg>
