<svg width="60" height="27" viewBox="0 0 60 27" fill="none" xmlns="http://www.w3.org/2000/svg">
<rect width="58.9806" height="25.1651" transform="translate(0.427246 0.91748)" fill="white"/>
<path d="M27.1214 23.6859H32.7136C32.7136 25.004 31.4554 26.0825 29.9175 26.0825C28.3797 26.0825 27.1214 25.004 27.1214 23.6859ZM42.5001 21.2892V22.4875H17.335V21.2892L20.1311 18.8925V11.7025C20.1311 7.98766 22.9272 4.75216 27.1214 3.67365V3.31415C27.1214 1.99598 28.3797 0.91748 29.9175 0.91748C31.4554 0.91748 32.7136 1.99598 32.7136 3.31415V3.67365C36.9078 4.75216 39.7039 7.98766 39.7039 11.7025V18.8925L42.5001 21.2892ZM36.9078 11.7025C36.9078 8.34716 33.8321 5.71082 29.9175 5.71082C26.003 5.71082 22.9272 8.34716 22.9272 11.7025V20.0909H36.9078V11.7025Z" fill="#B80000"/>
</svg>
